<mxfile host="app.diagrams.net" modified="2020-10-13T09:26:36.080Z" agent="5.0 (Windows NT 10.0; Win64; x64) AppleWebKit/537.36 (KHTML, like Gecko) Chrome/85.0.4183.121 Safari/537.36" etag="kg-3OzMh2KdsAKeI57bV" version="13.7.9" type="github">
  <diagram name="Page-1" id="e3a06f82-3646-2815-327d-82caf3d4e204">
    <mxGraphModel dx="2826" dy="1220" grid="0" gridSize="10" guides="1" tooltips="1" connect="1" arrows="1" fold="1" page="1" pageScale="1.5" pageWidth="1169" pageHeight="826" background="none" math="0" shadow="0">
      <root>
        <mxCell id="0" style=";html=1;" />
        <mxCell id="1" style=";html=1;" parent="0" />
        <mxCell id="PqosCW5vrghwhde0bpLh-4" value="" style="rounded=0;whiteSpace=wrap;html=1;fillColor=none;" vertex="1" parent="1">
          <mxGeometry x="327" y="120" width="1016" height="116" as="geometry" />
        </mxCell>
        <mxCell id="PqosCW5vrghwhde0bpLh-5" value="" style="rounded=0;whiteSpace=wrap;html=1;fillColor=none;" vertex="1" parent="1">
          <mxGeometry x="327" y="294" width="1016" height="130" as="geometry" />
        </mxCell>
        <mxCell id="PqosCW5vrghwhde0bpLh-6" value="" style="rounded=0;whiteSpace=wrap;html=1;fillColor=none;" vertex="1" parent="1">
          <mxGeometry x="327" y="474" width="331" height="116" as="geometry" />
        </mxCell>
        <mxCell id="PqosCW5vrghwhde0bpLh-7" value="" style="rounded=0;whiteSpace=wrap;html=1;fillColor=none;" vertex="1" parent="1">
          <mxGeometry x="327" y="648" width="1016" height="214" as="geometry" />
        </mxCell>
        <mxCell id="PqosCW5vrghwhde0bpLh-8" value="" style="endArrow=none;dashed=1;html=1;" edge="1" parent="1">
          <mxGeometry width="50" height="50" relative="1" as="geometry">
            <mxPoint x="102" y="270" as="sourcePoint" />
            <mxPoint x="1464" y="270" as="targetPoint" />
          </mxGeometry>
        </mxCell>
        <mxCell id="PqosCW5vrghwhde0bpLh-9" value="" style="endArrow=none;dashed=1;html=1;" edge="1" parent="1">
          <mxGeometry width="50" height="50" relative="1" as="geometry">
            <mxPoint x="103" y="449" as="sourcePoint" />
            <mxPoint x="1463" y="449" as="targetPoint" />
          </mxGeometry>
        </mxCell>
        <mxCell id="PqosCW5vrghwhde0bpLh-11" value="" style="endArrow=none;dashed=1;html=1;" edge="1" parent="1">
          <mxGeometry width="50" height="50" relative="1" as="geometry">
            <mxPoint x="102" y="622" as="sourcePoint" />
            <mxPoint x="1462" y="622" as="targetPoint" />
          </mxGeometry>
        </mxCell>
        <mxCell id="PqosCW5vrghwhde0bpLh-12" value="&lt;font style=&quot;font-size: 14px&quot;&gt;Web Server&lt;/font&gt;" style="verticalLabelPosition=bottom;aspect=fixed;html=1;verticalAlign=top;strokeColor=none;align=center;outlineConnect=0;shape=mxgraph.citrix.web_server;fillColor=none;" vertex="1" parent="1">
          <mxGeometry x="773" y="305" width="76.5" height="90" as="geometry" />
        </mxCell>
        <mxCell id="PqosCW5vrghwhde0bpLh-13" value="Secure Server" style="verticalLabelPosition=bottom;aspect=fixed;html=1;verticalAlign=top;strokeColor=none;shape=mxgraph.citrix.proxy_server;fillColor=#66B2FF;gradientColor=#0066CC;fontSize=14;" vertex="1" parent="1">
          <mxGeometry x="486" y="714" width="76.5" height="90" as="geometry" />
        </mxCell>
        <mxCell id="PqosCW5vrghwhde0bpLh-15" value="Secure Server" style="verticalLabelPosition=bottom;aspect=fixed;html=1;verticalAlign=top;strokeColor=none;shape=mxgraph.citrix.proxy_server;fillColor=#66B2FF;gradientColor=#0066CC;fontSize=14;" vertex="1" parent="1">
          <mxGeometry x="1064" y="714" width="76.5" height="90" as="geometry" />
        </mxCell>
        <mxCell id="PqosCW5vrghwhde0bpLh-16" value="Secure Server" style="verticalLabelPosition=bottom;aspect=fixed;html=1;verticalAlign=top;strokeColor=none;shape=mxgraph.citrix.proxy_server;fillColor=#66B2FF;gradientColor=#0066CC;fontSize=14;" vertex="1" parent="1">
          <mxGeometry x="773" y="718" width="76.5" height="90" as="geometry" />
        </mxCell>
        <mxCell id="PqosCW5vrghwhde0bpLh-17" value="&lt;br style=&quot;font-size: 14px&quot;&gt;&lt;span style=&quot;font-size: 14px&quot;&gt;DB&lt;/span&gt;" style="strokeWidth=2;html=1;shape=mxgraph.flowchart.database;whiteSpace=wrap;align=center;" vertex="1" parent="1">
          <mxGeometry x="462.5" y="484" width="60" height="90" as="geometry" />
        </mxCell>
        <mxCell id="PqosCW5vrghwhde0bpLh-18" value="Web Browser" style="verticalLabelPosition=bottom;aspect=fixed;html=1;verticalAlign=top;strokeColor=none;align=center;outlineConnect=0;shape=mxgraph.citrix.browser;fillColor=none;" vertex="1" parent="1">
          <mxGeometry x="785" y="135" width="47.83" height="73" as="geometry" />
        </mxCell>
        <mxCell id="PqosCW5vrghwhde0bpLh-19" value="" style="rounded=0;whiteSpace=wrap;html=1;fillColor=none;" vertex="1" parent="1">
          <mxGeometry x="1008" y="471" width="335" height="116" as="geometry" />
        </mxCell>
        <mxCell id="PqosCW5vrghwhde0bpLh-20" value="&lt;font style=&quot;font-size: 14px&quot;&gt;&lt;br&gt;DB&lt;/font&gt;" style="strokeWidth=2;html=1;shape=mxgraph.flowchart.database;whiteSpace=wrap;" vertex="1" parent="1">
          <mxGeometry x="1145.5" y="481" width="60" height="90" as="geometry" />
        </mxCell>
        <mxCell id="PqosCW5vrghwhde0bpLh-29" value="" style="shape=flexArrow;endArrow=classic;startArrow=classic;html=1;strokeWidth=3;entryX=0.477;entryY=1.011;entryDx=0;entryDy=0;entryPerimeter=0;" edge="1" parent="1" target="PqosCW5vrghwhde0bpLh-5">
          <mxGeometry width="50" height="50" relative="1" as="geometry">
            <mxPoint x="813" y="648" as="sourcePoint" />
            <mxPoint x="813" y="418" as="targetPoint" />
          </mxGeometry>
        </mxCell>
        <mxCell id="PqosCW5vrghwhde0bpLh-31" value="" style="shape=flexArrow;endArrow=classic;startArrow=classic;html=1;strokeWidth=3;entryX=0.47;entryY=0.998;entryDx=0;entryDy=0;entryPerimeter=0;" edge="1" parent="1" target="PqosCW5vrghwhde0bpLh-4">
          <mxGeometry width="50" height="50" relative="1" as="geometry">
            <mxPoint x="804" y="295" as="sourcePoint" />
            <mxPoint x="853" y="259" as="targetPoint" />
          </mxGeometry>
        </mxCell>
        <mxCell id="PqosCW5vrghwhde0bpLh-33" value="" style="shape=flexArrow;endArrow=classic;html=1;strokeWidth=3;entryX=0.396;entryY=1.012;entryDx=0;entryDy=0;entryPerimeter=0;" edge="1" parent="1">
          <mxGeometry width="50" height="50" relative="1" as="geometry">
            <mxPoint x="1175.6" y="648" as="sourcePoint" />
            <mxPoint x="1175.2599999999998" y="587.3919999999999" as="targetPoint" />
          </mxGeometry>
        </mxCell>
        <mxCell id="PqosCW5vrghwhde0bpLh-34" value="" style="shape=flexArrow;endArrow=classic;html=1;strokeWidth=3;" edge="1" parent="1">
          <mxGeometry width="50" height="50" relative="1" as="geometry">
            <mxPoint x="486.34000000000003" y="648.61" as="sourcePoint" />
            <mxPoint x="486" y="590" as="targetPoint" />
          </mxGeometry>
        </mxCell>
        <mxCell id="PqosCW5vrghwhde0bpLh-35" value="" style="shape=flexArrow;endArrow=classic;html=1;strokeWidth=3;exitX=0.482;exitY=0.005;exitDx=0;exitDy=0;exitPerimeter=0;" edge="1" parent="1" source="PqosCW5vrghwhde0bpLh-6">
          <mxGeometry width="50" height="50" relative="1" as="geometry">
            <mxPoint x="486" y="468" as="sourcePoint" />
            <mxPoint x="486" y="423" as="targetPoint" />
          </mxGeometry>
        </mxCell>
        <mxCell id="PqosCW5vrghwhde0bpLh-36" value="" style="shape=flexArrow;endArrow=classic;html=1;strokeWidth=3;" edge="1" parent="1">
          <mxGeometry width="50" height="50" relative="1" as="geometry">
            <mxPoint x="1175" y="471" as="sourcePoint" />
            <mxPoint x="1175" y="423" as="targetPoint" />
          </mxGeometry>
        </mxCell>
        <mxCell id="PqosCW5vrghwhde0bpLh-40" value="&lt;font style=&quot;font-size: 28px&quot;&gt;表现层&lt;/font&gt;" style="text;html=1;align=center;verticalAlign=middle;resizable=0;points=[];autosize=1;" vertex="1" parent="1">
          <mxGeometry x="123" y="173" width="94" height="23" as="geometry" />
        </mxCell>
        <mxCell id="PqosCW5vrghwhde0bpLh-41" value="&lt;font style=&quot;font-size: 28px&quot;&gt;应用层&lt;/font&gt;" style="text;html=1;align=center;verticalAlign=middle;resizable=0;points=[];autosize=1;" vertex="1" parent="1">
          <mxGeometry x="125" y="363" width="94" height="23" as="geometry" />
        </mxCell>
        <mxCell id="PqosCW5vrghwhde0bpLh-42" value="&lt;font style=&quot;font-size: 28px&quot;&gt;数据库层&lt;/font&gt;" style="text;html=1;align=center;verticalAlign=middle;resizable=0;points=[];autosize=1;" vertex="1" parent="1">
          <mxGeometry x="109" y="533" width="122" height="23" as="geometry" />
        </mxCell>
        <mxCell id="PqosCW5vrghwhde0bpLh-43" value="&lt;font style=&quot;font-size: 28px&quot;&gt;基础服务层&lt;/font&gt;" style="text;html=1;align=center;verticalAlign=middle;resizable=0;points=[];autosize=1;" vertex="1" parent="1">
          <mxGeometry x="95" y="731" width="150" height="23" as="geometry" />
        </mxCell>
      </root>
    </mxGraphModel>
  </diagram>
</mxfile>
